<mxfile host="Electron" modified="2024-05-14T13:34:41.274Z" agent="Mozilla/5.0 (Windows NT 10.0; Win64; x64) AppleWebKit/537.36 (KHTML, like Gecko) draw.io/23.1.5 Chrome/120.0.6099.109 Electron/28.1.0 Safari/537.36" etag="fbwzdutWC0sxr1PfQ0Yn" version="23.1.5" type="device">
  <diagram name="Page-1" id="4NoRxYIMNYoEsMbBZ-CR">
    <mxGraphModel dx="627" dy="376" grid="1" gridSize="10" guides="1" tooltips="1" connect="1" arrows="1" fold="1" page="1" pageScale="1" pageWidth="850" pageHeight="1100" math="0" shadow="0">
      <root>
        <mxCell id="0" />
        <mxCell id="1" parent="0" />
        <mxCell id="odXCuu1DjA-ZgtKkCAjo-1" value="" style="sketch=0;pointerEvents=1;shadow=0;dashed=0;html=1;strokeColor=none;fillColor=#505050;labelPosition=center;verticalLabelPosition=bottom;verticalAlign=top;outlineConnect=0;align=center;shape=mxgraph.office.devices.laptop;" vertex="1" parent="1">
          <mxGeometry x="195" y="292" width="130" height="80" as="geometry" />
        </mxCell>
        <mxCell id="odXCuu1DjA-ZgtKkCAjo-2" value="&lt;b&gt;Developer PC&lt;/b&gt;" style="text;html=1;align=center;verticalAlign=middle;resizable=0;points=[];autosize=1;strokeColor=none;fillColor=none;" vertex="1" parent="1">
          <mxGeometry x="210" y="312" width="100" height="30" as="geometry" />
        </mxCell>
        <mxCell id="odXCuu1DjA-ZgtKkCAjo-5" style="edgeStyle=orthogonalEdgeStyle;rounded=0;orthogonalLoop=1;jettySize=auto;html=1;" edge="1" parent="1" source="odXCuu1DjA-ZgtKkCAjo-3" target="odXCuu1DjA-ZgtKkCAjo-1">
          <mxGeometry relative="1" as="geometry" />
        </mxCell>
        <mxCell id="odXCuu1DjA-ZgtKkCAjo-3" value="&lt;b&gt;Simulator&lt;/b&gt;" style="whiteSpace=wrap;html=1;aspect=fixed;fillColor=#f8cecc;strokeColor=#b85450;" vertex="1" parent="1">
          <mxGeometry x="425" y="482" width="80" height="80" as="geometry" />
        </mxCell>
        <mxCell id="odXCuu1DjA-ZgtKkCAjo-6" style="edgeStyle=orthogonalEdgeStyle;rounded=0;orthogonalLoop=1;jettySize=auto;html=1;" edge="1" parent="1" source="odXCuu1DjA-ZgtKkCAjo-4" target="odXCuu1DjA-ZgtKkCAjo-1">
          <mxGeometry relative="1" as="geometry" />
        </mxCell>
        <mxCell id="odXCuu1DjA-ZgtKkCAjo-4" value="&lt;b&gt;Flight Computer&lt;/b&gt;" style="whiteSpace=wrap;html=1;fillColor=#dae8fc;strokeColor=#6c8ebf;" vertex="1" parent="1">
          <mxGeometry x="425" y="122" width="120" height="60" as="geometry" />
        </mxCell>
        <mxCell id="odXCuu1DjA-ZgtKkCAjo-7" style="edgeStyle=orthogonalEdgeStyle;rounded=0;orthogonalLoop=1;jettySize=auto;html=1;entryX=0.333;entryY=0.992;entryDx=0;entryDy=0;entryPerimeter=0;" edge="1" parent="1" source="odXCuu1DjA-ZgtKkCAjo-3" target="odXCuu1DjA-ZgtKkCAjo-4">
          <mxGeometry relative="1" as="geometry" />
        </mxCell>
        <mxCell id="odXCuu1DjA-ZgtKkCAjo-9" value="Feed generated data to&lt;br&gt;the flight computer" style="text;html=1;align=center;verticalAlign=middle;resizable=0;points=[];autosize=1;strokeColor=none;fillColor=none;" vertex="1" parent="1">
          <mxGeometry x="465" y="302" width="150" height="40" as="geometry" />
        </mxCell>
        <mxCell id="odXCuu1DjA-ZgtKkCAjo-10" value="&lt;b&gt;USB-SERIAL Debugger&lt;/b&gt;" style="text;html=1;align=center;verticalAlign=middle;resizable=0;points=[];autosize=1;strokeColor=none;fillColor=none;" vertex="1" parent="1">
          <mxGeometry x="190" y="522" width="160" height="30" as="geometry" />
        </mxCell>
        <mxCell id="odXCuu1DjA-ZgtKkCAjo-11" value="&lt;b&gt;USB-SERIAL Debugger&lt;/b&gt;" style="text;html=1;align=center;verticalAlign=middle;resizable=0;points=[];autosize=1;strokeColor=none;fillColor=none;" vertex="1" parent="1">
          <mxGeometry x="220" y="120" width="160" height="30" as="geometry" />
        </mxCell>
        <mxCell id="odXCuu1DjA-ZgtKkCAjo-12" value="Debug data being sent from the simulator to the&amp;nbsp;&lt;br&gt;flight computer" style="text;html=1;align=center;verticalAlign=middle;resizable=0;points=[];autosize=1;strokeColor=none;fillColor=none;" vertex="1" parent="1">
          <mxGeometry x="120" y="545" width="280" height="40" as="geometry" />
        </mxCell>
        <mxCell id="odXCuu1DjA-ZgtKkCAjo-14" value="Debug data from flight computer to the&amp;nbsp;&lt;br&gt;PC - checks state transitions" style="text;html=1;align=center;verticalAlign=middle;resizable=0;points=[];autosize=1;strokeColor=none;fillColor=none;" vertex="1" parent="1">
          <mxGeometry x="180" y="82" width="230" height="40" as="geometry" />
        </mxCell>
        <mxCell id="odXCuu1DjA-ZgtKkCAjo-15" value="Running an instance of simulation&lt;br&gt;application" style="text;html=1;align=center;verticalAlign=middle;resizable=0;points=[];autosize=1;strokeColor=none;fillColor=none;" vertex="1" parent="1">
          <mxGeometry x="10" y="292" width="200" height="40" as="geometry" />
        </mxCell>
        <mxCell id="odXCuu1DjA-ZgtKkCAjo-16" value="What is generated?&lt;br&gt;1. IMU data(x_acc, y_acc, z_acc)&lt;br&gt;2. BMP pressure sensor data- altitude&amp;nbsp;&lt;br&gt;3. Geolocation data from GPS - lat, long&lt;br&gt;4. Camera data - video stream&lt;br&gt;&lt;div&gt;&lt;br&gt;&lt;/div&gt;" style="text;html=1;align=left;verticalAlign=middle;resizable=0;points=[];autosize=1;strokeColor=none;fillColor=none;" vertex="1" parent="1">
          <mxGeometry x="515" y="482" width="240" height="100" as="geometry" />
        </mxCell>
        <mxCell id="odXCuu1DjA-ZgtKkCAjo-17" value="&lt;b&gt;Simulation&amp;nbsp; software&lt;br&gt;&lt;/b&gt;" style="text;html=1;align=center;verticalAlign=middle;resizable=0;points=[];autosize=1;strokeColor=none;fillColor=none;" vertex="1" parent="1">
          <mxGeometry x="635" y="120" width="140" height="30" as="geometry" />
        </mxCell>
        <mxCell id="odXCuu1DjA-ZgtKkCAjo-18" value="1. Display the states being received&lt;br&gt;from the flight computer on a dashboard&lt;br&gt;2. Display all the sensor data being received from the&amp;nbsp;&lt;br&gt;flight computer&amp;nbsp;&lt;br&gt;3. Display all the fake data being received&amp;nbsp;&lt;br&gt;from the simulator engine&lt;br&gt;4. Plot this values to show the expected data behaviour&lt;br&gt;during flight&lt;br&gt;5. Ability to send probing commands to the flight computer&amp;nbsp;&lt;br&gt;(maybe thro&#39; the simulator or thro&#39; the engine)&lt;div&gt;6. Have a 3D model of the rocket that responds to&amp;nbsp;&lt;/div&gt;&lt;div&gt;orientation data being received from the flight computer&lt;/div&gt;" style="text;html=1;align=left;verticalAlign=middle;resizable=0;points=[];autosize=1;strokeColor=none;fillColor=none;" vertex="1" parent="1">
          <mxGeometry x="645" y="132" width="340" height="190" as="geometry" />
        </mxCell>
      </root>
    </mxGraphModel>
  </diagram>
</mxfile>
